HIERARCHY
ROOT Haolin_28_06:Solving:Hips
{
	OFFSET 0.000000 0.000000 0.000000
	CHANNELS 6 Xposition Yposition Zposition Xrotation Yrotation Zrotation
	JOINT Haolin_28_06:Solving:Spine
	{
		OFFSET 0.000000 -12.181966 2.015561
		CHANNELS 6 Xposition Yposition Zposition Xrotation Yrotation Zrotation
		JOINT Haolin_28_06:Solving:Spine1
		{
			OFFSET 0.000000 -8.890296 1.567602
			CHANNELS 6 Xposition Yposition Zposition Xrotation Yrotation Zrotation
			JOINT Haolin_28_06:Solving:Spine2
			{
				OFFSET 0.000000 -8.993092 0.786796
				CHANNELS 6 Xposition Yposition Zposition Xrotation Yrotation Zrotation
				JOINT Haolin_28_06:Solving:Spine3
				{
					OFFSET 0.000000 -9.027443 0.000000
					CHANNELS 6 Xposition Yposition Zposition Xrotation Yrotation Zrotation
					JOINT Haolin_28_06:Solving:Neck
					{
						OFFSET 0.000000 -11.606712 -1.160669
						CHANNELS 6 Xposition Yposition Zposition Xrotation Yrotation Zrotation
						JOINT Haolin_28_06:Solving:Neck1
						{
							OFFSET 0.000000 -7.471592 -0.653680
							CHANNELS 6 Xposition Yposition Zposition Xrotation Yrotation Zrotation
							JOINT Haolin_28_06:Solving:Head
							{
								OFFSET 0.000000 -7.386181 -1.302382
								CHANNELS 6 Xposition Yposition Zposition Xrotation Yrotation Zrotation
								JOINT Haolin_28_06:Solving:HeadEnd
								{
									OFFSET 0.000000 -9.728081 0.000002
									CHANNELS 6 Xposition Yposition Zposition Xrotation Yrotation Zrotation
									End Site
									{
										OFFSET 0.000000 -9.728081 0.000002
									}
								}
							}
						}
					}
					JOINT Haolin_28_06:Solving:RightShoulder
					{
						OFFSET 0.000000 -8.290508 -5.270916
						CHANNELS 6 Xposition Yposition Zposition Xrotation Yrotation Zrotation
						JOINT Haolin_28_06:Solving:RightArm
						{
							OFFSET -19.261074 -0.000008 0.000000
							CHANNELS 6 Xposition Yposition Zposition Xrotation Yrotation Zrotation
							JOINT Haolin_28_06:Solving:RightForeArm
							{
								OFFSET -30.691700 -0.000011 0.000000
								CHANNELS 6 Xposition Yposition Zposition Xrotation Yrotation Zrotation
								JOINT Haolin_28_06:Solving:RightHand
								{
									OFFSET -20.216934 -0.000008 0.000000
									CHANNELS 6 Xposition Yposition Zposition Xrotation Yrotation Zrotation
									JOINT Haolin_28_06:Solving:RightHandThumb1
									{
										OFFSET -4.948814 2.881329 -3.679893
										CHANNELS 6 Xposition Yposition Zposition Xrotation Yrotation Zrotation
										End Site
										{
											OFFSET -7.039886 -0.000004 -7.104978
										}
									}
									JOINT Haolin_28_06:Solving:RightHandMiddle1
									{
										OFFSET -13.196846 -0.000004 0.084595
										CHANNELS 6 Xposition Yposition Zposition Xrotation Yrotation Zrotation
										End Site
										{
											OFFSET -10.002037 -0.000004 0.000000
										}
									}
								}
							}
						}
					}
					JOINT Haolin_28_06:Solving:LeftShoulder
					{
						OFFSET 0.000000 -8.290508 -5.270916
						CHANNELS 6 Xposition Yposition Zposition Xrotation Yrotation Zrotation
						JOINT Haolin_28_06:Solving:LeftArm
						{
							OFFSET 19.261074 -0.000008 0.000000
							CHANNELS 6 Xposition Yposition Zposition Xrotation Yrotation Zrotation
							JOINT Haolin_28_06:Solving:LeftForeArm
							{
								OFFSET 30.691700 -0.000011 0.000000
								CHANNELS 6 Xposition Yposition Zposition Xrotation Yrotation Zrotation
								JOINT Haolin_28_06:Solving:LeftHand
								{
									OFFSET 20.216934 -0.000008 0.000000
									CHANNELS 6 Xposition Yposition Zposition Xrotation Yrotation Zrotation
									JOINT Haolin_28_06:Solving:LeftHandThumb1
									{
										OFFSET 4.948814 2.881329 -3.679893
										CHANNELS 6 Xposition Yposition Zposition Xrotation Yrotation Zrotation
										End Site
										{
											OFFSET 7.039886 -0.000004 -7.104978
										}
									}
									JOINT Haolin_28_06:Solving:LeftHandMiddle1
									{
										OFFSET 13.196846 -0.000004 0.084595
										CHANNELS 6 Xposition Yposition Zposition Xrotation Yrotation Zrotation
										End Site
										{
											OFFSET 10.002037 -0.000004 0.000000
										}
									}
								}
							}
						}
					}
				}
			}
		}
	}
	JOINT Haolin_28_06:Solving:RightUpLeg
	{
		OFFSET -10.083070 0.000000 0.000000
		CHANNELS 6 Xposition Yposition Zposition Xrotation Yrotation Zrotation
		JOINT Haolin_28_06:Solving:RightLeg
		{
			OFFSET 0.000000 47.042522 -0.000008
			CHANNELS 6 Xposition Yposition Zposition Xrotation Yrotation Zrotation
			JOINT Haolin_28_06:Solving:RightFoot
			{
				OFFSET 0.000000 38.766415 -0.000006
				CHANNELS 6 Xposition Yposition Zposition Xrotation Yrotation Zrotation
				JOINT Haolin_28_06:Solving:RightForeFoot
				{
					OFFSET 0.000000 3.531212 -0.000000
					CHANNELS 6 Xposition Yposition Zposition Xrotation Yrotation Zrotation
					JOINT Haolin_28_06:Solving:RightToeBase
					{
						OFFSET 0.000000 0.000000 -13.829352
						CHANNELS 6 Xposition Yposition Zposition Xrotation Yrotation Zrotation
						JOINT Haolin_28_06:Solving:RightToeBaseEnd
						{
							OFFSET 0.000000 0.000000 -4.034167
							CHANNELS 6 Xposition Yposition Zposition Xrotation Yrotation Zrotation
							End Site
							{
								OFFSET 0.000000 -4.034164 0.000004
							}
						}
					}
				}
			}
		}
	}
	JOINT Haolin_28_06:Solving:LeftUpLeg
	{
		OFFSET 10.083070 0.000000 0.000000
		CHANNELS 6 Xposition Yposition Zposition Xrotation Yrotation Zrotation
		JOINT Haolin_28_06:Solving:LeftLeg
		{
			OFFSET 0.000000 47.042522 -0.000008
			CHANNELS 6 Xposition Yposition Zposition Xrotation Yrotation Zrotation
			JOINT Haolin_28_06:Solving:LeftFoot
			{
				OFFSET 0.000000 38.766415 -0.000006
				CHANNELS 6 Xposition Yposition Zposition Xrotation Yrotation Zrotation
				JOINT Haolin_28_06:Solving:LeftForeFoot
				{
					OFFSET 0.000000 3.531212 -0.000000
					CHANNELS 6 Xposition Yposition Zposition Xrotation Yrotation Zrotation
					JOINT Haolin_28_06:Solving:LeftToeBase
					{
						OFFSET 0.000000 0.000000 -13.829352
						CHANNELS 6 Xposition Yposition Zposition Xrotation Yrotation Zrotation
						JOINT Haolin_28_06:Solving:LeftToeBaseEnd
						{
							OFFSET 0.000000 0.000000 -4.855067
							CHANNELS 6 Xposition Yposition Zposition Xrotation Yrotation Zrotation
							End Site
							{
								OFFSET 0.000000 -4.855064 0.000004
							}
						}
					}
				}
			}
		}
	}
}
MOTION
Frames: 6
Frame Time: 0.041667
-0.520563 34.392517 -94.210518 80.700249 4.918295 -0.371083 -0.000000 -12.181979 2.015567 15.117094 -0.467634 -4.081714 0.000002 -8.890285 1.567598 0.046920 0.083127 -0.936940 -0.000000 -8.993112 0.786794 -0.239486 -2.455310 0.331936 -0.000003 -9.027455 -0.000005 1.786025 -1.568940 3.417975 -0.000001 -11.606707 -1.160661 -6.825461 2.121670 -1.566776 -0.000001 -7.471573 -0.653677 -1.192112 -0.153477 -2.171166 0.000002 -7.386230 -1.302389 3.701158 0.383528 -2.760685 -0.000001 -9.728073 -0.000001 -0.000000 0.000000 -0.000000 -0.000001 -8.290493 -5.270909 -0.000009 18.765281 8.345889 -19.261065 -0.000017 -0.000006 -5.455642 -42.557802 -92.451494 -30.691738 -0.000006 0.000004 -29.930613 -10.167879 -5.803409 -20.216900 -0.000010 -0.000000 0.392419 -6.379243 3.527375 -4.948820 2.881323 -3.679877 -0.000001 0.000007 0.000004 -13.196869 -0.000004 0.084596 -0.000001 0.000002 0.000000 -0.000000 -8.290527 -5.270905 -0.000005 -11.151157 -4.358922 19.261074 -0.000029 -0.000001 -1.304721 33.667819 82.027027 30.691689 0.000000 0.000002 -1.715801 18.736080 0.551283 20.216925 -0.000010 0.000001 -0.063192 0.597732 6.034915 4.948783 2.881314 -3.679869 -0.000002 0.000000 -0.000001 13.196823 -0.000013 0.084605 0.000002 -0.000001 -0.000000 -10.083071 -0.000012 0.000009 14.053491 5.816706 2.693213 0.000000 47.042515 0.000000 -1.308921 0.000000 -0.000000 0.000006 38.766411 -0.000004 3.434202 16.034757 -13.745901 0.000002 3.531220 0.000000 0.000001 0.000003 -0.000000 -0.000002 0.000003 -13.829357 -3.041156 0.000003 0.000002 -0.000000 -0.000007 -4.034168 0.000000 0.000002 -0.000001 10.083071 -0.000010 -0.000003 11.862048 -22.757395 -3.540915 -0.000002 47.042530 -0.000005 2.568124 0.000001 0.000001 -0.000005 38.766415 -0.000008 5.409109 -14.451622 15.459935 -0.000006 3.531204 -0.000001 -0.000000 0.000004 -0.000001 -0.000006 0.000016 -13.829357 2.800504 0.000004 0.000000 -0.000007 -0.000008 -4.855079 0.000000 0.000005 -0.000001 
-0.505615 34.371162 -94.201767 80.772178 4.925679 -0.382247 0.000000 -12.181984 2.015561 15.072170 -0.453379 -4.019580 0.000000 -8.890289 1.567603 0.040425 0.084272 -0.927004 0.000001 -8.993091 0.786796 -0.264666 -2.347316 0.288557 0.000000 -9.027436 -0.000001 1.779007 -1.500614 3.240636 -0.000002 -11.606679 -1.160662 -6.782578 1.940981 -1.469570 0.000002 -7.471613 -0.653686 -1.272609 -0.428025 -2.146970 0.000003 -7.386231 -1.302396 3.625390 0.360260 -2.704565 0.000003 -9.728081 0.000001 0.000000 -0.000000 -0.000001 -0.000001 -8.290482 -5.270903 -0.000013 18.787356 8.234687 -19.261068 0.000017 -0.000000 -4.596883 -42.799728 -90.983645 -30.691723 -0.000009 0.000003 -28.327472 -10.834172 -5.785807 -20.216953 -0.000006 0.000011 0.212842 -6.891420 1.773260 -4.948791 2.881327 -3.679869 0.000001 -0.000000 0.000001 -13.196845 -0.000003 0.084611 0.000002 -0.000000 0.000001 -0.000001 -8.290504 -5.270901 -0.000010 -11.287838 -4.430429 19.261068 0.000029 -0.000008 -0.365765 36.160053 80.798693 30.691725 -0.000010 -0.000002 -1.049354 20.132934 0.361227 20.216915 -0.000014 0.000010 -0.126998 1.229374 5.898255 4.948806 2.881328 -3.679878 -0.000001 -0.000003 -0.000001 13.196833 -0.000005 0.084595 0.000000 -0.000002 0.000003 -10.083072 -0.000004 0.000005 13.894429 5.710729 2.719143 0.000001 47.042526 -0.000008 -1.138221 0.000001 -0.000000 0.000003 38.766415 -0.000011 3.314564 16.161047 -13.753597 -0.000001 3.531212 -0.000009 0.000001 -0.000003 -0.000000 -0.000003 -0.000000 -13.829355 -2.976188 -0.000000 -0.000002 -0.000003 0.000008 -4.034168 -0.000000 0.000002 -0.000001 10.083071 -0.000016 -0.000007 11.758944 -22.608063 -3.530274 -0.000001 47.042522 -0.000008 2.633638 0.000003 -0.000000 -0.000008 38.766399 -0.000005 5.359372 -14.565981 15.483305 0.000001 3.531228 -0.000002 0.000001 0.000002 0.000001 -0.000002 0.000011 -13.829364 2.786053 0.000001 -0.000001 0.000003 -0.000007 -4.855073 0.000001 -0.000001 0.000000 
-0.520032 34.354431 -94.198486 80.783434 4.864635 -0.360013 0.000000 -12.181956 2.015567 15.080050 -0.408951 -3.955427 0.000001 -8.890298 1.567610 0.034464 0.086180 -0.906307 0.000001 -8.993103 0.786794 -0.271660 -2.215400 0.238725 -0.000000 -9.027456 0.000003 1.785013 -1.419742 3.029366 -0.000000 -11.606662 -1.160664 -6.801745 1.742665 -1.358741 -0.000003 -7.471560 -0.653676 -1.327831 -0.720591 -2.147172 -0.000001 -7.386180 -1.302388 3.566437 0.337748 -2.672309 0.000002 -9.728081 -0.000004 -0.000000 -0.000000 -0.000001 -0.000002 -8.290447 -5.270908 -0.000007 18.762887 8.055160 -19.261066 -0.000007 0.000011 -3.804720 -43.108681 -89.460684 -30.691727 -0.000011 0.000004 -26.420317 -11.400989 -5.609237 -20.216942 -0.000014 -0.000000 -0.012230 -7.484135 -0.093898 -4.948820 2.881334 -3.679875 0.000000 -0.000000 0.000003 -13.196845 -0.000002 0.084595 -0.000001 0.000004 0.000001 -0.000002 -8.290451 -5.270909 -0.000003 -11.398696 -4.468837 19.261080 -0.000022 -0.000003 0.550615 38.233480 79.568623 30.691713 -0.000018 -0.000004 -0.413947 21.413458 0.151139 20.216942 -0.000011 0.000006 -0.183177 1.880047 5.565931 4.948812 2.881323 -3.679886 -0.000002 0.000003 -0.000003 13.196876 -0.000007 0.084594 0.000000 0.000003 -0.000001 -10.083071 -0.000004 0.000005 13.830457 5.727356 2.691317 -0.000001 47.042530 -0.000018 -1.031651 -0.000003 -0.000000 0.000005 38.766411 -0.000007 3.272049 16.176449 -13.810186 -0.000001 3.531212 0.000003 0.000002 0.000001 0.000001 0.000001 0.000016 -13.829354 -2.989315 -0.000004 0.000002 -0.000002 -0.000000 -4.034163 -0.000000 -0.000001 0.000000 10.083073 0.000012 0.000002 11.682327 -22.412743 -3.587135 0.000001 47.042538 -0.000007 2.707832 -0.000003 0.000001 -0.000006 38.766411 -0.000005 5.330035 -14.653008 15.531087 -0.000002 3.531219 -0.000003 -0.000002 0.000001 -0.000001 0.000001 0.000018 -13.829364 2.702793 -0.000001 0.000002 -0.000003 0.000007 -4.855071 -0.000001 -0.000000 -0.000003 
-0.552185 34.332634 -94.195023 80.780231 4.739372 -0.356947 0.000000 -12.181948 2.015565 15.108952 -0.356310 -3.841396 0.000002 -8.890303 1.567606 0.024438 0.085866 -0.867478 0.000002 -8.993101 0.786796 -0.278596 -2.043256 0.172990 0.000001 -9.027454 0.000003 1.787534 -1.332932 2.789923 -0.000001 -11.606702 -1.160673 -6.849077 1.545115 -1.262066 -0.000001 -7.471642 -0.653677 -1.368984 -1.041008 -2.150870 -0.000001 -7.386185 -1.302378 3.534496 0.312808 -2.640502 -0.000006 -9.728104 -0.000005 -0.000000 -0.000000 0.000001 0.000001 -8.290535 -5.270909 -0.000009 18.731539 7.846218 -19.261080 0.000005 0.000011 -3.045835 -43.739527 -87.894515 -30.691696 -0.000010 0.000001 -24.680759 -11.933885 -5.428246 -20.216923 -0.000017 0.000011 -0.251094 -8.019314 -1.799339 -4.948818 2.881333 -3.679878 -0.000003 -0.000003 0.000005 -13.196845 -0.000002 0.084605 -0.000000 0.000002 0.000001 0.000001 -8.290539 -5.270909 -0.000006 -11.387469 -4.566223 19.261078 0.000002 0.000004 1.032821 39.001808 78.750503 30.691685 -0.000013 0.000001 1.016850 22.257971 -0.385184 20.216948 -0.000017 0.000004 -0.264844 2.658384 5.691754 4.948789 2.881341 -3.679901 0.000008 -0.000002 -0.000003 13.196836 0.000006 0.084583 0.000005 -0.000000 -0.000003 -10.083071 0.000014 -0.000003 13.800523 5.889585 2.637192 -0.000001 47.042526 -0.000007 -0.952421 -0.000001 -0.000000 0.000003 38.766403 -0.000003 3.214815 16.221595 -13.842438 0.000000 3.531212 -0.000001 -0.000000 -0.000004 -0.000001 0.000003 0.000003 -13.829350 -2.946010 0.000000 -0.000001 -0.000002 -0.000007 -4.034162 0.000000 -0.000001 -0.000000 10.083068 0.000021 0.000013 11.593863 -22.197502 -3.658409 0.000003 47.042522 -0.000001 2.803779 -0.000002 0.000000 -0.000005 38.766422 -0.000009 5.295528 -14.665268 15.539338 0.000002 3.531212 -0.000001 0.000001 -0.000001 0.000002 -0.000001 0.000001 -13.829352 2.666678 0.000000 0.000002 -0.000001 -0.000007 -4.855070 0.000001 -0.000001 0.000001 
-0.605228 34.303467 -94.189980 80.776249 4.552920 -0.314158 0.000001 -12.181973 2.015562 15.146812 -0.314637 -3.746206 -0.000000 -8.890276 1.567596 0.013582 0.085460 -0.818804 0.000000 -8.993112 0.786794 -0.294954 -1.834086 0.082717 -0.000002 -9.027411 -0.000005 1.772534 -1.237333 2.539421 -0.000001 -11.606707 -1.160671 -6.904534 1.327275 -1.162562 0.000002 -7.471597 -0.653685 -1.398580 -1.374472 -2.153334 -0.000002 -7.386221 -1.302391 3.533662 0.284098 -2.604913 -0.000001 -9.728096 0.000003 -0.000000 -0.000000 0.000001 -0.000003 -8.290497 -5.270916 -0.000012 18.673768 7.648485 -19.261061 0.000043 0.000008 -2.307300 -44.576622 -86.337013 -30.691713 -0.000014 -0.000001 -23.094782 -12.358531 -5.214807 -20.216951 -0.000016 0.000007 -0.493121 -8.580989 -3.301395 -4.948827 2.881310 -3.679875 -0.000004 -0.000007 0.000003 -13.196853 -0.000009 0.084592 -0.000001 -0.000001 0.000001 -0.000002 -8.290501 -5.270916 -0.000007 -11.328104 -4.679848 19.261078 -0.000009 -0.000003 1.385748 39.447662 78.077696 30.691702 -0.000011 -0.000000 2.348827 22.899401 -0.914387 20.216942 -0.000009 -0.000000 -0.343568 3.370778 5.823310 4.948807 2.881329 -3.679893 0.000010 -0.000005 0.000000 13.196849 0.000000 0.084590 0.000008 -0.000003 0.000003 -10.083067 -0.000015 0.000002 13.783879 6.175740 2.516805 -0.000001 47.042538 -0.000006 -0.894024 -0.000000 -0.000000 0.000006 38.766407 -0.000005 3.214836 16.204299 -13.920739 0.000001 3.531212 -0.000004 0.000000 -0.000000 -0.000000 0.000001 0.000012 -13.829357 -3.015924 0.000000 -0.000001 0.000003 0.000000 -4.034165 0.000001 -0.000004 -0.000000 10.083070 0.000007 0.000010 11.444796 -22.017550 -3.820627 -0.000003 47.042522 -0.000006 2.947342 -0.000001 0.000000 -0.000007 38.766426 -0.000008 5.210806 -14.544323 15.496810 -0.000002 3.531219 -0.000000 0.000001 0.000000 -0.000001 0.000006 -0.000009 -13.829361 2.693156 -0.000001 0.000000 -0.000000 -0.000000 -4.855076 -0.000001 0.000000 -0.000001 
-0.654002 34.267277 -94.187447 80.806008 4.359647 -0.310215 0.000000 -12.181964 2.015570 15.155322 -0.297009 -3.627318 0.000000 -8.890311 1.567613 -0.000398 0.091155 -0.790670 -0.000001 -8.993093 0.786794 -0.318443 -1.636044 0.032045 -0.000001 -9.027433 -0.000001 1.743294 -1.151609 2.317744 0.000001 -11.606742 -1.160651 -6.952516 1.132338 -1.090506 0.000002 -7.471580 -0.653676 -1.416645 -1.710303 -2.149976 0.000004 -7.386221 -1.302384 3.572133 0.253531 -2.560973 0.000008 -9.728111 -0.000004 0.000000 0.000000 -0.000001 -0.000002 -8.290520 -5.270909 -0.000010 18.648660 7.431469 -19.261080 0.000009 0.000011 -1.422628 -46.028696 -84.700001 -30.691700 -0.000012 -0.000007 -22.325293 -12.736498 -5.173110 -20.216921 -0.000013 -0.000002 -0.663670 -9.176790 -4.154330 -4.948821 2.881333 -3.679868 0.000004 0.000010 0.000002 -13.196838 -0.000001 0.084606 0.000000 0.000003 0.000000 -0.000001 -8.290527 -5.270909 -0.000006 -11.247525 -4.764983 19.261066 -0.000014 -0.000004 1.863176 40.027688 77.285407 30.691685 -0.000013 -0.000003 3.024517 23.563806 -1.210046 20.216927 -0.000011 0.000004 -0.386670 3.943851 5.604109 4.948793 2.881326 -3.679877 0.000005 -0.000003 -0.000009 13.196836 -0.000000 0.084590 0.000005 -0.000000 -0.000002 -10.083072 -0.000009 0.000007 13.697196 6.525604 2.437016 0.000002 47.042534 -0.000007 -0.768971 0.000000 0.000000 0.000004 38.766430 -0.000005 3.144299 16.112710 -13.930161 0.000002 3.531204 -0.000003 -0.000001 0.000000 -0.000000 0.000001 0.000002 -13.829354 -3.000547 -0.000008 -0.000001 0.000003 -0.000008 -4.034155 -0.000000 -0.000006 -0.000000 10.083071 0.000006 0.000014 11.239663 -21.914421 -3.941286 -0.000001 47.042530 -0.000011 3.133902 -0.000002 0.000001 -0.000003 38.766430 -0.000008 5.165541 -14.442876 15.553165 0.000001 3.531212 0.000004 0.000001 0.000000 0.000001 0.000001 0.000001 -13.829353 2.623709 0.000002 -0.000001 -0.000006 0.000007 -4.855069 -0.000002 -0.000002 0.000000 
